<svg width="180" height="180" viewBox="0 0 180 180" fill="none" xmlns="http://www.w3.org/2000/svg">
  <defs>
    <linearGradient id="bg" x1="26" y1="18" x2="154" y2="162" gradientUnits="userSpaceOnUse">
      <stop stop-color="#190912" />
      <stop offset="1" stop-color="#47142A" />
    </linearGradient>
    <linearGradient id="heart" x1="62" y1="44" x2="121" y2="124" gradientUnits="userSpaceOnUse">
      <stop stop-color="#FF8FB4" />
      <stop offset="1" stop-color="#D4376A" />
    </linearGradient>
    <linearGradient id="glow" x1="118" y1="22" x2="146" y2="48" gradientUnits="userSpaceOnUse">
      <stop stop-color="#F6D59B" />
      <stop offset="1" stop-color="#D08A5A" />
    </linearGradient>
  </defs>

  <rect width="180" height="180" rx="38" fill="url(#bg)" />
  <circle cx="133" cy="44" r="18" fill="url(#glow)" opacity="0.42" />

  <path
    d="M90 135C88 135 86.1 134.3 84.6 132.9L48.9 99.6C38.6 90 33 80.5 33 68.3C33 50.1 46.3 37 63.4 37C74 37 83.7 41.9 90 49.9C96.3 41.9 106 37 116.6 37C133.7 37 147 50.1 147 68.3C147 80.5 141.4 90 131.1 99.6L95.4 132.9C93.9 134.3 92 135 90 135Z"
    fill="url(#heart)"
  />

  <path
    d="M128 30L131.5 39.5L141 43L131.5 46.5L128 56L124.5 46.5L115 43L124.5 39.5L128 30Z"
    fill="#F2C184"
  />
</svg>
